<svg width="450" height="90" viewBox="0 0 450 90" fill="none" xmlns="http://www.w3.org/2000/svg">
<path d="M109.216 37.304V43.88H100.288V71H92.08V43.88H83.152V37.304H109.216ZM129.271 71.336C126.103 71.336 123.191 70.6 120.535 69.128C117.911 67.656 115.815 65.608 114.247 62.984C112.711 60.328 111.943 57.352 111.943 54.056C111.943 50.76 112.711 47.8 114.247 45.176C115.815 42.552 117.911 40.504 120.535 39.032C123.191 37.56 126.103 36.824 129.271 36.824C132.439 36.824 135.335 37.56 137.959 39.032C140.615 40.504 142.695 42.552 144.199 45.176C145.735 47.8 146.503 50.76 146.503 54.056C146.503 57.352 145.735 60.328 144.199 62.984C142.663 65.608 140.583 67.656 137.959 69.128C135.335 70.6 132.439 71.336 129.271 71.336ZM129.271 63.848C131.959 63.848 134.103 62.952 135.703 61.16C137.335 59.368 138.151 57 138.151 54.056C138.151 51.08 137.335 48.712 135.703 46.952C134.103 45.16 131.959 44.264 129.271 44.264C126.551 44.264 124.375 45.144 122.743 46.904C121.143 48.664 120.343 51.048 120.343 54.056C120.343 57.032 121.143 59.416 122.743 61.208C124.375 62.968 126.551 63.848 129.271 63.848ZM159.134 37.304V57.464C159.134 59.48 159.63 61.032 160.622 62.12C161.614 63.208 163.07 63.752 164.99 63.752C166.91 63.752 168.382 63.208 169.406 62.12C170.43 61.032 170.942 59.48 170.942 57.464V37.304H179.15V57.416C179.15 60.424 178.51 62.968 177.23 65.048C175.95 67.128 174.222 68.696 172.046 69.752C169.902 70.808 167.502 71.336 164.846 71.336C162.19 71.336 159.806 70.824 157.694 69.8C155.614 68.744 153.966 67.176 152.75 65.096C151.534 62.984 150.926 60.424 150.926 57.416V37.304H159.134ZM193.122 64.664H203.874V71H184.914V37.304H193.122V64.664ZM223.725 71.336C220.557 71.336 217.645 70.6 214.989 69.128C212.365 67.656 210.269 65.608 208.701 62.984C207.164 60.328 206.396 57.352 206.396 54.056C206.396 50.76 207.164 47.8 208.701 45.176C210.269 42.552 212.365 40.504 214.989 39.032C217.645 37.56 220.557 36.824 223.725 36.824C226.893 36.824 229.789 37.56 232.413 39.032C235.069 40.504 237.149 42.552 238.653 45.176C240.189 47.8 240.957 50.76 240.957 54.056C240.957 57.352 240.189 60.328 238.653 62.984C237.117 65.608 235.037 67.656 232.413 69.128C229.789 70.6 226.893 71.336 223.725 71.336ZM223.725 63.848C226.413 63.848 228.557 62.952 230.156 61.16C231.789 59.368 232.605 57 232.605 54.056C232.605 51.08 231.789 48.712 230.156 46.952C228.557 45.16 226.413 44.264 223.725 44.264C221.005 44.264 218.829 45.144 217.197 46.904C215.597 48.664 214.797 51.048 214.797 54.056C214.797 57.032 215.597 59.416 217.197 61.208C218.829 62.968 221.005 63.848 223.725 63.848ZM275.667 71H267.459L253.731 50.216V71H245.523V37.304H253.731L267.459 58.184V37.304H275.667V71ZM303.553 37.304V43.88H289.825V50.984H300.097V57.368H289.825V71H281.617V37.304H303.553ZM316.075 37.304V71H307.867V37.304H316.075ZM352.167 71H343.959L330.231 50.216V71H322.023V37.304H330.231L343.959 58.184V37.304H352.167V71ZM370.741 37.304C374.293 37.304 377.397 38.008 380.053 39.416C382.709 40.824 384.757 42.808 386.197 45.368C387.669 47.896 388.405 50.824 388.405 54.152C388.405 57.448 387.669 60.376 386.197 62.936C384.757 65.496 382.693 67.48 380.005 68.888C377.349 70.296 374.261 71 370.741 71H358.117V37.304H370.741ZM370.213 63.896C373.317 63.896 375.733 63.048 377.461 61.352C379.189 59.656 380.053 57.256 380.053 54.152C380.053 51.048 379.189 48.632 377.461 46.904C375.733 45.176 373.317 44.312 370.213 44.312H366.325V63.896H370.213Z" fill="#102D51"/>
<path d="M424.14 65.048H411.564L409.548 71H400.956L413.148 37.304H422.652L434.844 71H426.156L424.14 65.048ZM422.028 58.712L417.852 46.376L413.724 58.712H422.028ZM446.762 37.304V71H438.554V37.304H446.762Z" fill="#D98C44"/>
<path d="M71 33.165L62.3467 28.1699L59.8467 26.7266L57.3467 28.1699L30.5 43.6699L28 45.1133V70C28 70.3425 28.035 70.6769 28.1006 71H0V0H71V33.165ZM71 44.7119V71H37.8994C37.965 70.6769 38 70.3425 38 70V50.8857L59.8467 38.2734L71 44.7119Z" fill="#D98C44"/>
</svg>
