<svg width="448" height="81" viewBox="0 0 448 81" fill="none" xmlns="http://www.w3.org/2000/svg">
<path d="M106.9 28.1741V34.7501H97.9716V61.8701H89.7636V34.7501H80.8356V28.1741H106.9ZM126.955 62.2061C123.787 62.2061 120.875 61.4701 118.219 59.9981C115.595 58.5261 113.499 56.4781 111.931 53.8541C110.395 51.1981 109.627 48.2221 109.627 44.9261C109.627 41.6301 110.395 38.6701 111.931 36.0461C113.499 33.4221 115.595 31.3741 118.219 29.9021C120.875 28.4301 123.787 27.6941 126.955 27.6941C130.123 27.6941 133.019 28.4301 135.643 29.9021C138.299 31.3741 140.379 33.4221 141.883 36.0461C143.419 38.6701 144.187 41.6301 144.187 44.9261C144.187 48.2221 143.419 51.1981 141.883 53.8541C140.347 56.4781 138.267 58.5261 135.643 59.9981C133.019 61.4701 130.123 62.2061 126.955 62.2061ZM126.955 54.7181C129.643 54.7181 131.787 53.8221 133.387 52.0301C135.019 50.2381 135.835 47.8701 135.835 44.9261C135.835 41.9501 135.019 39.5821 133.387 37.8221C131.787 36.0301 129.643 35.1341 126.955 35.1341C124.235 35.1341 122.059 36.0141 120.427 37.7741C118.827 39.5341 118.027 41.9181 118.027 44.9261C118.027 47.9021 118.827 50.2861 120.427 52.0781C122.059 53.8381 124.235 54.7181 126.955 54.7181ZM156.817 28.1741V48.3341C156.817 50.3501 157.313 51.9021 158.305 52.9901C159.297 54.0781 160.753 54.6221 162.673 54.6221C164.593 54.6221 166.065 54.0781 167.089 52.9901C168.113 51.9021 168.625 50.3501 168.625 48.3341V28.1741H176.833V48.2861C176.833 51.2941 176.193 53.8381 174.913 55.9181C173.633 57.9981 171.905 59.5661 169.729 60.6221C167.585 61.6781 165.185 62.2061 162.529 62.2061C159.873 62.2061 157.489 61.6941 155.377 60.6701C153.297 59.6141 151.649 58.0461 150.433 55.9661C149.217 53.8541 148.609 51.2941 148.609 48.2861V28.1741H156.817ZM190.805 55.5341H201.557V61.8701H182.597V28.1741H190.805V55.5341ZM221.408 62.2061C218.24 62.2061 215.328 61.4701 212.672 59.9981C210.048 58.5261 207.952 56.4781 206.384 53.8541C204.848 51.1981 204.08 48.2221 204.08 44.9261C204.08 41.6301 204.848 38.6701 206.384 36.0461C207.952 33.4221 210.048 31.3741 212.672 29.9021C215.328 28.4301 218.24 27.6941 221.408 27.6941C224.576 27.6941 227.472 28.4301 230.096 29.9021C232.752 31.3741 234.832 33.4221 236.336 36.0461C237.872 38.6701 238.64 41.6301 238.64 44.9261C238.64 48.2221 237.872 51.1981 236.336 53.8541C234.8 56.4781 232.72 58.5261 230.096 59.9981C227.472 61.4701 224.576 62.2061 221.408 62.2061ZM221.408 54.7181C224.096 54.7181 226.24 53.8221 227.84 52.0301C229.472 50.2381 230.288 47.8701 230.288 44.9261C230.288 41.9501 229.472 39.5821 227.84 37.8221C226.24 36.0301 224.096 35.1341 221.408 35.1341C218.688 35.1341 216.512 36.0141 214.88 37.7741C213.28 39.5341 212.48 41.9181 212.48 44.9261C212.48 47.9021 213.28 50.2861 214.88 52.0781C216.512 53.8381 218.688 54.7181 221.408 54.7181ZM273.35 61.8701H265.142L251.414 41.0861V61.8701H243.206V28.1741H251.414L265.142 49.0541V28.1741H273.35V61.8701ZM301.236 28.1741V34.7501H287.508V41.8541H297.78V48.2381H287.508V61.8701H279.3V28.1741H301.236ZM313.758 28.1741V61.8701H305.55V28.1741H313.758ZM349.85 61.8701H341.642L327.914 41.0861V61.8701H319.706V28.1741H327.914L341.642 49.0541V28.1741H349.85V61.8701ZM368.424 28.1741C371.976 28.1741 375.08 28.8781 377.736 30.2861C380.392 31.6941 382.44 33.6781 383.88 36.2381C385.352 38.7661 386.088 41.6941 386.088 45.0221C386.088 48.3181 385.352 51.2461 383.88 53.8061C382.44 56.3661 380.376 58.3501 377.688 59.7581C375.032 61.1661 371.944 61.8701 368.424 61.8701H355.8V28.1741H368.424ZM367.896 54.7661C371 54.7661 373.416 53.9181 375.144 52.2221C376.872 50.5261 377.736 48.1261 377.736 45.0221C377.736 41.9181 376.872 39.5021 375.144 37.7741C373.416 36.0461 371 35.1821 367.896 35.1821H364.008V54.7661H367.896Z" fill="#102D51"/>
<path d="M421.823 55.9181H409.247L407.231 61.8701H398.639L410.831 28.1741H420.335L432.527 61.8701H423.839L421.823 55.9181ZM419.711 49.5821L415.535 37.2461L411.407 49.5821H419.711ZM444.446 28.1741V61.8701H436.238V28.1741H444.446Z" fill="#D98C44"/>
<path d="M37.8926 1.55664L48.5498 11.2041V5.8291H60.5498V22.0684L69.376 30.0596L74.1855 34.4131H62.3281V61.5576H47.1719V45.5146L26.5283 52.6914V61.5576H11.626V34.4131H0L4.53125 30.1016L34.4922 1.59863L36.1729 0L37.8926 1.55664ZM12.5098 29.4131H16.626V56.5576H21.5283V49.1367L23.207 48.5527L48.8506 39.6387L52.1719 38.4844V56.5576H57.3281V29.4131H61.2129L36.2568 6.82031L12.5098 29.4131ZM53.5498 14.375L55.5498 16.3164V10.8291H53.5498V14.375Z" fill="#D98C44"/>
<path d="M35.5 35H29V28.5H35.5V35ZM43 35H36.5V28.5H43V35ZM35.5 27.5H29V21H35.5V27.5ZM43 27.5H36.5V21H43V27.5Z" fill="#D98C44"/>
</svg>
